<?xml version="1.0" encoding="UTF-8" standalone="no"?>
<!-- Created with Inkscape (http://www.inkscape.org/) -->

<svg
   width="300"
   height="300"
   viewBox="0 0 300 300"
   version="1.1"
   id="svg1"
   sodipodi:docname="logo.svg"
   inkscape:version="1.4 (e7c3feb100, 2024-10-09)"
   xml:space="preserve"
   inkscape:export-filename="logo.png"
   inkscape:export-xdpi="96"
   inkscape:export-ydpi="96"
   xmlns:inkscape="http://www.inkscape.org/namespaces/inkscape"
   xmlns:sodipodi="http://sodipodi.sourceforge.net/DTD/sodipodi-0.dtd"
   xmlns="http://www.w3.org/2000/svg"
   xmlns:svg="http://www.w3.org/2000/svg"><sodipodi:namedview
     id="namedview1"
     pagecolor="#ffffff"
     bordercolor="#000000"
     borderopacity="0.25"
     inkscape:showpageshadow="2"
     inkscape:pageopacity="0.0"
     inkscape:pagecheckerboard="0"
     inkscape:deskcolor="#d1d1d1"
     inkscape:document-units="px"
     inkscape:zoom="2.075"
     inkscape:cx="149.87952"
     inkscape:cy="150.36144"
     inkscape:window-width="1920"
     inkscape:window-height="1043"
     inkscape:window-x="0"
     inkscape:window-y="0"
     inkscape:window-maximized="1"
     inkscape:current-layer="layer1" /><defs
     id="defs1"><inkscape:path-effect
       effect="powermask"
       id="path-effect3"
       is_visible="true"
       lpeversion="1"
       uri="#mask-powermask-path-effect3"
       invert="false"
       hide_mask="false"
       background="true"
       background_color="#ffffffff" /></defs><g
     inkscape:label="Layer 1"
     inkscape:groupmode="layer"
     id="layer1"><g
       id="g1"
       transform="rotate(-5,150,150)"><path
         id="path1"
         mask="none"
         style="font-variation-settings:normal;opacity:1;vector-effect:none;fill:#273272;fill-opacity:1;stroke-width:1;stroke-linecap:butt;stroke-linejoin:miter;stroke-miterlimit:4;stroke-dasharray:none;stroke-dashoffset:0;stroke-opacity:1;-inkscape-stroke:none;stop-color:#000000;stop-opacity:1"
         d="m -150,-30 a 120,120 0 0 0 0.53711,-0.03906 V -269.96094 A 120,120 0 0 0 -150,-270 a 120,120 0 0 0 -120,120 120,120 0 0 0 120,120 z"
         transform="scale(-1)" /><path
         id="path1-2"
         mask="none"
         style="font-variation-settings:normal;vector-effect:none;fill:#f7b217;fill-opacity:1;stroke-width:1;stroke-linecap:butt;stroke-linejoin:miter;stroke-miterlimit:4;stroke-dasharray:none;stroke-dashoffset:0;stroke-opacity:1;-inkscape-stroke:none;stop-color:#000000"
         d="m 150,270.00002 a 120,120 0 0 0 0.53712,-0.0391 V 30.039085 A 120,120 0 0 0 150,29.999985 120,120 0 0 0 30,149.99998 120,120 0 0 0 150,270.00002 Z" /><circle
         style="fill:#f7b217"
         id="path2"
         cx="150"
         cy="-210"
         transform="scale(1,-1)"
         r="60" /><circle
         style="fill:#273272"
         id="path2-9"
         cx="150"
         cy="-90"
         transform="scale(1,-1)"
         r="60" /></g></g></svg>
